# xmcd
#
# Track frame offsets:
#	150
#	12156
#	21714
#	35489
#	48792
#	60280
#	70577
#	83818
#	95661
#	105946
#	117209
#	130058
#	141165
#	159321
#	176370
#	189836
#	201055
#	215528
#	225342
#	236430
#	246418
#	256297
#	266736
#	278111
#	286901
#	294420
#	303883
#	313857
#	324434
#	337236
#
# Disc length: 4642 seconds
#
# Revision: 1
# Processed by: cddbd v1.5.2PL0 Copyright (c) Steve Scherf et al.
# Submitted via: audiograbber 1.83.01
#
DISCID=a212201e
DTITLE=Various Artist - Country Singles Vol. 3
DYEAR=1900
DGENRE=
TTITLE0=George Jones - Once You've Had The Best
TTITLE1=George Jones - Mary Don't Go 'Round
TTITLE2=Billie Jo Spears - Mr.Walker, It's All Over
TTITLE3=Billie Jo Spears - Tips And Tables
TTITLE4=Billy Walker - Elusive Butterfly
TTITLE5=Billy Walker - Smoky Places
TTITLE6=Conway Twitty - Slow Hand
TTITLE7=Conway Twitty - When Love Was Something Else
TTITLE8=Lucille Starr - Lonely Street
TTITLE9=Lucille Starr - Cry, Cry Darlin'
TTITLE10=Doyle Holly - A Rainbow In My Hand
TTITLE11=Doyle Holly - Free Love
TTITLE12=Henson Cargill - Silence On The Line
TTITLE13=Henson Cargill - Forever In Blue Jeans
TTITLE14=Larry Steele and The Wranglers - Yeaster-Years Man
TTITLE15=Larry Steele and The Wranglers - Plain Simple Life
TTITLE16=Mary Kay James - I'm Not That Good At Goodbye
TTITLE17=Mary Kay James - Home Is Anywhere You Are
TTITLE18=Slim Whitman - My Happiness
TTITLE19=Slim Whitman - Promises
TTITLE20=Don Gibson - I'm Movin' On
TTITLE21=Don Gibson - Big Hearted Me
TTITLE22=Sonny James - Young Love
TTITLE23=Sonny James - You're The Reason I'm In Love
TTITLE24=Stringbean - Banjo Convention
TTITLE25=Stringbean - Cold Creek March
TTITLE26=Warner Mack - Live For The Good Times
TTITLE27=Warner Mack - Another Mountain To Climb
TTITLE28=Doc Watson - I Can't Help Wonder (Where I'm Bound)
TTITLE29=Doc Watson - Southbound Passenger Train
EXTD=
EXTT0=
EXTT1=
EXTT2=
EXTT3=
EXTT4=
EXTT5=
EXTT6=
EXTT7=
EXTT8=
EXTT9=
EXTT10=
EXTT11=
EXTT12=
EXTT13=
EXTT14=
EXTT15=
EXTT16=
EXTT17=
EXTT18=
EXTT19=
EXTT20=
EXTT21=
EXTT22=
EXTT23=
EXTT24=
EXTT25=
EXTT26=
EXTT27=
EXTT28=
EXTT29=
PLAYORDER=
